<svg width="435" height="256" viewBox="0 0 435 256" fill="none" xmlns="http://www.w3.org/2000/svg">
<g clip-path="url(#clip0_15_27)">
<path d="M421.14 216.833C416.974 231.297 404.81 241.423 392.122 250.024C390.35 251.225 388.578 252.399 386.805 253.545C386.793 253.55 386.781 253.561 386.768 253.567C386.683 253.622 386.598 253.677 386.518 253.732C386.152 253.968 385.786 254.204 385.423 254.437L385.623 254.527C385.623 254.527 385.818 254.631 385.604 254.544C385.541 254.517 385.474 254.493 385.41 254.466C378.039 251.491 370.537 248.296 364.888 242.722C359.028 236.933 355.603 227.855 358.776 220.251C359.193 219.255 359.72 218.308 360.347 217.429C360.604 217.06 360.882 216.708 361.17 216.361C362.921 214.223 365.208 212.59 367.798 211.631C370.388 210.671 373.187 210.419 375.906 210.9C378.626 211.382 381.168 212.58 383.271 214.37C385.375 216.161 386.964 218.481 387.875 221.09C388.807 212.403 381.65 205.127 374.763 199.758C367.873 194.391 360.043 188.547 358.711 179.908C357.967 175.102 359.637 170.444 362.679 166.705C362.773 166.591 362.867 166.478 362.964 166.367C366.667 162.012 371.876 159.216 377.549 158.536C388.115 157.437 398.378 163.035 406.053 170.387C418.407 182.217 425.876 200.387 421.14 216.833Z" fill="#F2F2F2"/>
<path d="M401.28 197.913C403.308 201.071 404.865 204.508 405.902 208.115C406.779 211.339 407.169 214.676 407.06 218.016C406.777 224.888 404.849 231.591 401.439 237.563C398.87 242.093 395.739 246.28 392.122 250.024C390.35 251.225 388.578 252.399 386.805 253.545C386.793 253.55 386.781 253.561 386.768 253.567C386.683 253.622 386.598 253.677 386.518 253.732C386.152 253.968 385.786 254.204 385.423 254.437C385.423 254.437 385.818 254.631 385.604 254.544C385.541 254.517 385.474 254.493 385.41 254.466C386.071 249.045 385.424 243.544 383.523 238.425C381.622 233.306 378.523 228.717 374.485 225.044C370.438 221.426 365.593 218.817 360.347 217.429C360.605 217.06 360.882 216.707 361.17 216.361C363.197 216.93 365.169 217.677 367.063 218.593C373.837 221.849 379.383 227.2 382.881 233.856C386.019 239.899 387.37 246.714 386.775 253.499C387.078 253.224 387.381 252.944 387.675 252.666C393.276 247.439 398.251 241.44 401.618 234.516C404.539 228.652 405.975 222.16 405.799 215.61C405.524 208.469 402.681 201.854 398.565 196.095C394.053 189.951 388.724 184.454 382.724 179.755C376.678 174.908 370.061 170.82 363.023 167.582C362.864 167.508 362.74 167.375 362.676 167.212C362.612 167.049 362.613 166.867 362.679 166.705C362.726 166.559 362.829 166.438 362.964 166.367C363.034 166.337 363.11 166.323 363.186 166.326C363.262 166.33 363.336 166.35 363.403 166.386C364.272 166.786 365.135 167.192 365.992 167.616C373.122 171.143 379.787 175.543 385.833 180.715C391.674 185.699 397.172 191.393 401.28 197.913Z" fill="white"/>
<path d="M252.279 131.067C253.142 130.754 253.925 130.256 254.574 129.607C255.223 128.959 255.722 128.175 256.035 127.313C256.349 126.45 256.47 125.53 256.39 124.615C256.31 123.701 256.031 122.815 255.571 122.021L270.144 105.135L258.656 103.638L246.579 119.903C245.296 120.763 244.374 122.065 243.986 123.561C243.598 125.056 243.772 126.643 244.475 128.019C245.177 129.395 246.36 130.465 247.798 131.027C249.237 131.589 250.831 131.603 252.279 131.067Z" fill="#FFB8B8"/>
<path d="M334.418 134.635C335.023 133.945 335.469 133.13 335.725 132.249C335.981 131.368 336.041 130.441 335.901 129.534C335.76 128.627 335.423 127.761 334.912 126.999C334.401 126.237 333.73 125.596 332.944 125.121L337.577 103.295L326.791 107.528L324.046 127.605C323.337 128.978 323.156 130.563 323.537 132.061C323.917 133.559 324.834 134.864 326.112 135.731C327.391 136.598 328.943 136.965 330.473 136.763C332.004 136.561 333.408 135.804 334.418 134.635Z" fill="#FFB8B8"/>
<path d="M282.224 248.382L274.576 248.381L270.938 218.855L282.225 218.856L282.224 248.382Z" fill="#FFB8B8"/>
<path d="M284.175 255.802L259.513 255.801V255.489C259.513 254.227 259.762 252.978 260.244 251.812C260.726 250.647 261.433 249.588 262.325 248.695C263.216 247.803 264.274 247.096 265.439 246.613C266.604 246.13 267.852 245.882 269.112 245.882L284.175 245.882L284.175 255.802Z" fill="#2F2E41"/>
<path d="M319.655 248.382L312.007 248.381L308.369 218.855L319.657 218.856L319.655 248.382Z" fill="#FFB8B8"/>
<path d="M321.606 255.802L296.945 255.801V255.489C296.945 254.227 297.193 252.978 297.675 251.812C298.158 250.647 298.865 249.588 299.756 248.695C300.647 247.803 301.706 247.096 302.87 246.613C304.035 246.13 305.283 245.882 306.543 245.882L321.606 245.882L321.606 255.802Z" fill="#2F2E41"/>
<path d="M283.021 232.964L272.194 232.53C271.456 232.499 270.759 232.177 270.255 231.636C269.751 231.095 269.48 230.377 269.501 229.637L272.551 129.498L272.75 129.426C291.725 122.556 307.423 123.076 320.741 131.012L320.89 131.101L322.717 228.632C322.724 229.006 322.657 229.377 322.519 229.724C322.381 230.071 322.175 230.387 321.914 230.653C321.652 230.92 321.341 231.132 320.997 231.276C320.652 231.421 320.283 231.495 319.91 231.495H310.78C310.13 231.494 309.5 231.267 308.998 230.854C308.496 230.441 308.152 229.866 308.026 229.227L295.589 165.908C295.546 165.69 295.427 165.493 295.252 165.355C295.077 165.216 294.859 165.145 294.636 165.153C294.414 165.161 294.201 165.249 294.037 165.4C293.873 165.551 293.769 165.755 293.742 165.977L285.92 230.495C285.834 231.175 285.504 231.801 284.991 232.256C284.478 232.71 283.817 232.963 283.132 232.966C283.095 232.966 283.058 232.965 283.021 232.964Z" fill="#2F2E41"/>
<path d="M293.554 41.6792C302.016 41.6792 308.876 34.8132 308.876 26.3435C308.876 17.8739 302.016 11.0079 293.554 11.0079C285.092 11.0079 278.231 17.8739 278.231 26.3435C278.231 34.8132 285.092 41.6792 293.554 41.6792Z" fill="#FFB8B8"/>
<path d="M257.458 118.878C256.926 118.668 256.471 118.3 256.153 117.825L253.193 113.391C252.873 112.91 252.709 112.343 252.722 111.765C252.736 111.188 252.926 110.629 253.267 110.163L265.202 93.9492L272.68 58.0399C273.11 56.9309 273.754 55.9176 274.575 55.0579C275.397 54.1982 276.38 53.5091 277.467 53.0298C278.555 52.5505 279.727 52.2906 280.915 52.2648C282.103 52.239 283.285 52.4479 284.393 52.8795C285.5 53.3112 286.512 53.9571 287.37 54.7803C288.228 55.6035 288.915 56.588 289.393 57.6773C289.87 58.7666 290.129 59.9394 290.153 61.1288C290.177 62.3181 289.967 63.5005 289.535 64.6085L286.001 87.4621C284.929 94.3985 281.376 100.709 276.004 105.22L260.292 118.416C259.99 118.67 259.638 118.857 259.259 118.965C258.879 119.074 258.482 119.101 258.091 119.046C257.874 119.015 257.661 118.958 257.458 118.878Z" fill="#305DBF"/>
<path d="M333.764 120.505C333.227 120.699 332.643 120.724 332.09 120.577L326.941 119.207C326.384 119.057 325.886 118.739 325.515 118.297C325.143 117.855 324.917 117.31 324.866 116.735L323.121 96.671L305.028 64.7716C304.619 63.6549 304.434 62.4685 304.483 61.2802C304.533 60.0918 304.816 58.9249 305.316 57.846C305.816 56.7671 306.524 55.7975 307.399 54.9925C308.273 54.1876 309.298 53.5631 310.414 53.1548C311.53 52.7464 312.716 52.5622 313.903 52.6127C315.091 52.6632 316.256 52.9474 317.334 53.4491C318.411 53.9507 319.379 54.66 320.183 55.5363C320.986 56.4127 321.609 57.4389 322.016 58.5563L334.45 78.048C338.225 83.9633 339.724 91.0495 338.67 97.9884L335.587 118.284C335.528 118.674 335.387 119.047 335.174 119.38C334.961 119.712 334.68 119.995 334.351 120.212C334.167 120.332 333.971 120.431 333.764 120.505Z" fill="#305DBF"/>
<path d="M276.794 53.5777C279.426 50.6891 282.672 48.4287 286.293 46.9634C289.915 45.498 293.818 44.8651 297.716 45.1113C297.973 45.1271 298.228 45.145 298.482 45.1649C302.177 45.4573 305.767 46.5358 309.011 48.3283C312.256 50.1207 315.081 52.5859 317.297 55.5589C319.551 58.5734 321.135 62.0347 321.945 65.7113C322.754 69.3879 322.77 73.1951 321.992 76.8784C319.021 90.9546 319.773 105.563 324.173 119.26L328.284 132.034C328.416 132.443 328.452 132.877 328.389 133.303C328.327 133.728 328.168 134.134 327.924 134.488C327.681 134.842 327.359 135.136 326.984 135.346C326.609 135.556 326.191 135.677 325.762 135.7L304.748 136.831L299.37 127.534V137.12L273.829 138.495C273.778 138.498 273.727 138.499 273.677 138.499C273.289 138.499 272.906 138.419 272.551 138.263C272.196 138.107 271.877 137.88 271.614 137.594C271.352 137.309 271.151 136.973 271.024 136.606C270.898 136.239 270.849 135.85 270.88 135.464L273.767 99.6351L270.146 75.3009C269.56 71.4129 269.853 67.4427 271.003 63.6831C272.154 59.9235 274.133 56.4702 276.794 53.5777Z" fill="#305DBF"/>
<path d="M304.203 40.9836C302.784 41.8006 297.177 42.3423 296.777 40.7537L296.769 40.7188C296.491 39.5549 296.722 38.3394 296.801 37.1453C296.881 35.9513 296.764 34.6395 295.952 33.7615C294.437 32.1249 291.742 32.9925 289.552 32.5787C288.269 32.2921 287.135 31.5474 286.361 30.484C285.587 29.4206 285.226 28.1113 285.347 26.8013C285.379 26.5531 285.427 26.3046 285.482 26.0563C285.619 25.4271 285.609 24.7747 285.451 24.1503C285.294 23.5259 284.994 22.9466 284.576 22.4576C284.157 21.9687 283.631 21.5836 283.038 21.3325C282.446 21.0814 281.803 20.9711 281.161 21.0104C278.948 21.1371 276.558 21.8083 274.727 20.1674C273.311 18.8985 272.965 15.5954 273.587 13.7978C274.633 10.7768 281.332 9.19525 284.256 8.32583C287.874 7.27979 291.678 7.05364 295.394 7.66383C299.109 8.27402 302.642 9.70521 305.736 11.8533C307.583 13.1566 309.308 14.7941 310.096 16.9145C310.883 19.0349 310.503 21.71 308.728 23.1098C310.104 24.5681 311.073 26.3629 311.538 28.3142C312.003 30.2655 311.947 32.3049 311.377 34.2279C310.5 37.0561 306.315 39.7675 304.203 40.9836Z" fill="#2F2E41"/>
<path d="M165.945 86.1658H28.0734C27.9079 86.1658 27.7493 86.1 27.6323 85.9829C27.5153 85.8658 27.4495 85.707 27.4495 85.5414C27.4495 85.3758 27.5153 85.217 27.6323 85.0999C27.7493 84.9828 27.9079 84.9171 28.0734 84.9171H165.945C166.11 84.9171 166.269 84.9828 166.386 85.0999C166.503 85.217 166.569 85.3758 166.569 85.5414C166.569 85.707 166.503 85.8658 166.386 85.9829C166.269 86.1 166.11 86.1658 165.945 86.1658Z" fill="#E6E6E6"/>
<path d="M135.749 86.1658H57.3945C57.229 86.1658 57.0704 86.1 56.9534 85.9829C56.8364 85.8658 56.7706 85.707 56.7706 85.5414C56.7706 85.3758 56.8364 85.217 56.9534 85.0999C57.0704 84.9828 57.229 84.9171 57.3945 84.9171H135.749C135.915 84.9171 136.074 84.9828 136.191 85.0999C136.308 85.217 136.373 85.3758 136.373 85.5414C136.373 85.707 136.308 85.8658 136.191 85.9829C136.074 86.1 135.915 86.1658 135.749 86.1658Z" fill="#3F3D56"/>
<path d="M97.3211 86.1658C97.1556 86.1658 96.9969 86.1 96.8799 85.983C96.7629 85.8659 96.6972 85.7071 96.6972 85.5415V46.2049C96.6972 46.0393 96.7629 45.8805 96.8799 45.7634C96.9969 45.6463 97.1556 45.5805 97.3211 45.5805C97.4865 45.5805 97.6452 45.6463 97.7622 45.7634C97.8792 45.8805 97.9449 46.0393 97.9449 46.2049V85.5415C97.9449 85.707 97.8792 85.8659 97.7622 85.983C97.6452 86.1 97.4865 86.1658 97.3211 86.1658Z" fill="#3F3D56"/>
<path d="M136.624 86.1658C136.458 86.1658 136.3 86.1001 136.183 85.983C136.066 85.8659 136 85.7071 136 85.5415V6.86829C136 6.70269 136.066 6.54387 136.183 6.42678C136.3 6.30968 136.458 6.2439 136.624 6.2439C136.789 6.2439 136.948 6.30968 137.065 6.42678C137.182 6.54387 137.248 6.70269 137.248 6.86829V85.5415C137.248 85.7071 137.182 85.8659 137.065 85.983C136.948 86.1001 136.789 86.1658 136.624 86.1658Z" fill="#3F3D56"/>
<path d="M6.86238 13.7366C10.6524 13.7366 13.7248 10.6615 13.7248 6.86829C13.7248 3.07504 10.6524 0 6.86238 0C3.07239 0 0 3.07504 0 6.86829C0 10.6615 3.07239 13.7366 6.86238 13.7366Z" fill="#E6E6E6"/>
<path d="M6.86238 53.0732C10.6524 53.0732 13.7248 49.9981 13.7248 46.2049C13.7248 42.4116 10.6524 39.3366 6.86238 39.3366C3.07239 39.3366 0 42.4116 0 46.2049C0 49.9981 3.07239 53.0732 6.86238 53.0732Z" fill="#E6E6E6"/>
<path d="M6.86238 92.4097C10.6524 92.4097 13.7248 89.3347 13.7248 85.5414C13.7248 81.7482 10.6524 78.6732 6.86238 78.6732C3.07239 78.6732 0 81.7482 0 85.5414C0 89.3347 3.07239 92.4097 6.86238 92.4097Z" fill="#E6E6E6"/>
<path d="M165.945 7.49268H28.0734C27.9079 7.49268 27.7493 7.42688 27.6323 7.30979C27.5153 7.19269 27.4495 7.03389 27.4495 6.86829C27.4495 6.70269 27.5153 6.54387 27.6323 6.42678C27.7493 6.30968 27.9079 6.2439 28.0734 6.2439H165.945C166.11 6.2439 166.269 6.30968 166.386 6.42678C166.503 6.54387 166.569 6.70269 166.569 6.86829C166.569 7.03389 166.503 7.19269 166.386 7.30979C166.269 7.42688 166.11 7.49268 165.945 7.49268Z" fill="#E6E6E6"/>
<path d="M165.945 46.8293H28.0734C27.9079 46.8293 27.7493 46.7635 27.6323 46.6464C27.5153 46.5293 27.4495 46.3705 27.4495 46.2049C27.4495 46.0393 27.5153 45.8805 27.6323 45.7634C27.7493 45.6463 27.9079 45.5805 28.0734 45.5805H165.945C166.11 45.5805 166.269 45.6463 166.386 45.7634C166.503 45.8805 166.569 46.0393 166.569 46.2049C166.569 46.3705 166.503 46.5293 166.386 46.6464C166.269 46.7635 166.11 46.8293 165.945 46.8293Z" fill="#E6E6E6"/>
<path d="M57.7064 92.4097C61.4964 92.4097 64.5688 89.3347 64.5688 85.5414C64.5688 81.7482 61.4964 78.6732 57.7064 78.6732C53.9164 78.6732 50.8441 81.7482 50.8441 85.5414C50.8441 89.3347 53.9164 92.4097 57.7064 92.4097Z" fill="#305DBF"/>
<path d="M97.3211 53.0732C101.111 53.0732 104.183 49.9981 104.183 46.2049C104.183 42.4116 101.111 39.3366 97.3211 39.3366C93.5311 39.3366 90.4587 42.4116 90.4587 46.2049C90.4587 49.9981 93.5311 53.0732 97.3211 53.0732Z" fill="#305DBF"/>
<path d="M97.3211 92.4097C101.111 92.4097 104.183 89.3347 104.183 85.5414C104.183 81.7482 101.111 78.6732 97.3211 78.6732C93.5311 78.6732 90.4587 81.7482 90.4587 85.5414C90.4587 89.3347 93.5311 92.4097 97.3211 92.4097Z" fill="#305DBF"/>
<path d="M136.624 13.7366C140.414 13.7366 143.486 10.6615 143.486 6.86829C143.486 3.07504 140.414 0 136.624 0C132.834 0 129.761 3.07504 129.761 6.86829C129.761 10.6615 132.834 13.7366 136.624 13.7366Z" fill="#305DBF"/>
<path d="M136.624 53.0732C140.414 53.0732 143.486 49.9981 143.486 46.2049C143.486 42.4116 140.414 39.3366 136.624 39.3366C132.834 39.3366 129.761 42.4116 129.761 46.2049C129.761 49.9981 132.834 53.0732 136.624 53.0732Z" fill="#305DBF"/>
<path d="M136.624 92.4097C140.414 92.4097 143.486 89.3347 143.486 85.5414C143.486 81.7482 140.414 78.6732 136.624 78.6732C132.834 78.6732 129.761 81.7482 129.761 85.5414C129.761 89.3347 132.834 92.4097 136.624 92.4097Z" fill="#305DBF"/>
<path d="M434.376 256H160.505C160.339 256 160.181 255.934 160.064 255.817C159.947 255.7 159.881 255.541 159.881 255.376C159.881 255.21 159.947 255.051 160.064 254.934C160.181 254.817 160.339 254.751 160.505 254.751H434.376C434.542 254.751 434.7 254.817 434.817 254.934C434.934 255.051 435 255.21 435 255.376C435 255.541 434.934 255.7 434.817 255.817C434.7 255.934 434.542 256 434.376 256Z" fill="#3F3D56"/>
<path d="M202.752 200.462C202.339 200.441 201.923 200.43 201.505 200.429C195.217 200.429 189.187 202.929 184.742 207.379C180.296 211.828 177.798 217.863 177.798 224.156H202.752V200.462Z" fill="#305DBF"/>
<path d="M207.743 256C201.293 255.993 195.108 253.425 190.547 248.86C185.986 244.294 183.42 238.105 183.413 231.649C183.413 231.483 183.479 231.324 183.596 231.207C183.713 231.09 183.871 231.024 184.037 231.024H208.367V207.955C208.367 207.87 208.384 207.786 208.418 207.708C208.451 207.631 208.5 207.56 208.561 207.502C208.622 207.443 208.695 207.398 208.774 207.368C208.854 207.339 208.939 207.326 209.023 207.331C215.356 207.665 221.309 210.461 225.613 215.123C229.917 219.785 232.232 225.944 232.065 232.29C231.898 238.635 229.262 244.664 224.719 249.093C220.176 253.522 214.085 256 207.743 256ZM184.669 232.273C184.79 236.734 186.199 241.065 188.726 244.742C191.253 248.419 194.79 251.284 198.91 252.992C203.029 254.7 207.555 255.177 211.94 254.366C216.324 253.554 220.38 251.489 223.617 248.42C226.855 245.351 229.134 241.409 230.181 237.071C231.227 232.733 230.996 228.184 229.515 223.974C228.034 219.765 225.367 216.075 221.835 213.351C218.303 210.626 214.059 208.983 209.615 208.622V231.649C209.615 231.814 209.549 231.973 209.432 232.09C209.315 232.207 209.156 232.273 208.991 232.273H184.669Z" fill="#3F3D56"/>
</g>
<defs>
<clipPath id="clip0_15_27">
<rect width="435" height="256" fill="white"/>
</clipPath>
</defs>
</svg>
