<svg width="438" height="369" viewBox="0 0 438 369" fill="none" xmlns="http://www.w3.org/2000/svg">
<g clip-path="url(#clip0_19_330)">
<path d="M85.4183 142.272L32.7131 160.44C30.9248 161.055 28.966 160.934 27.2665 160.105C25.5671 159.277 24.2659 157.807 23.6485 156.02L2.32244 94.1158C1.7087 92.3275 1.82923 90.3688 2.65758 88.6692C3.48593 86.9695 4.95447 85.6679 6.74102 85.0497L55.7744 68.147L69.045 72.8591L89.8341 133.205C90.4484 134.993 90.3284 136.951 89.5006 138.651C88.6728 140.351 87.2046 141.653 85.4183 142.272Z" fill="#E6E6E6"/>
<path d="M7.40963 86.9903C6.13767 87.431 5.09221 88.3581 4.50236 89.5684C3.91251 90.7786 3.82637 92.1734 4.26281 93.4469L25.589 155.352C26.0296 156.624 26.9564 157.669 28.1663 158.259C29.3763 158.849 30.7708 158.935 32.0442 158.498L84.7488 140.33C86.0208 139.889 87.0662 138.962 87.6561 137.752C88.2459 136.542 88.3321 135.147 87.8956 133.874L67.4284 74.462L55.7639 70.3217L7.40963 86.9903Z" fill="white"/>
<path d="M56.0631 90.3565L32.0686 98.6274C31.9203 98.6821 31.7625 98.7067 31.6046 98.6996C31.4466 98.6926 31.2916 98.654 31.1488 98.5863C31.0059 98.5185 30.878 98.4229 30.7726 98.3051C30.6672 98.1873 30.5863 98.0495 30.5348 97.9C30.4833 97.7505 30.4622 97.5923 30.4727 97.4345C30.4831 97.2767 30.525 97.1226 30.5958 96.9812C30.6666 96.8398 30.7649 96.7139 30.885 96.611C31.0051 96.5081 31.1445 96.4303 31.295 96.382L55.2895 88.1111C55.5853 88.0162 55.9064 88.0409 56.1841 88.18C56.4618 88.3191 56.6739 88.5614 56.7751 88.8551C56.8763 89.1487 56.8584 89.4703 56.7253 89.751C56.5922 90.0317 56.3545 90.249 56.0631 90.3565Z" fill="#6C63FF"/>
<path d="M61.9989 92.55L33.3741 102.417C33.2257 102.472 33.0679 102.496 32.91 102.489C32.752 102.482 32.5971 102.444 32.4542 102.376C32.3113 102.308 32.1835 102.212 32.078 102.095C31.9726 101.977 31.8918 101.839 31.8403 101.69C31.7888 101.54 31.7676 101.382 31.7781 101.224C31.7885 101.066 31.8304 100.912 31.9012 100.771C31.972 100.629 32.0704 100.503 32.1904 100.401C32.3105 100.298 32.4499 100.22 32.6005 100.172L61.2253 90.3046C61.3736 90.2499 61.5314 90.2253 61.6894 90.2324C61.8473 90.2394 62.0023 90.278 62.1451 90.3457C62.288 90.4135 62.4159 90.5091 62.5213 90.6269C62.6268 90.7447 62.7076 90.8825 62.7591 91.032C62.8106 91.1815 62.8317 91.3397 62.8213 91.4975C62.8108 91.6553 62.7689 91.8094 62.6981 91.9508C62.6273 92.0922 62.529 92.218 62.4089 92.3209C62.2889 92.4238 62.1495 92.5017 61.9989 92.55Z" fill="#6C63FF"/>
<path d="M61.1408 105.093L37.1468 113.363C36.8491 113.466 36.6044 113.683 36.4664 113.966C36.3285 114.249 36.3086 114.575 36.4111 114.873C36.5137 115.17 36.7303 115.415 37.0133 115.553C37.2963 115.691 37.6225 115.711 37.9202 115.608L61.9142 107.338C62.2119 107.235 62.4566 107.018 62.5946 106.735C62.7325 106.452 62.7524 106.126 62.6498 105.828C62.5473 105.531 62.3307 105.286 62.0477 105.148C61.7647 105.01 61.4384 104.99 61.1408 105.093Z" fill="#CCCCCC"/>
<path d="M67.0775 107.287L38.4527 117.154C38.155 117.257 37.9103 117.473 37.7723 117.756C37.6344 118.039 37.6145 118.366 37.717 118.663C37.8196 118.961 38.0362 119.206 38.3192 119.344C38.6022 119.482 38.9284 119.502 39.2261 119.399L67.8509 109.532C68.1486 109.429 68.3934 109.213 68.5313 108.93C68.6693 108.647 68.6892 108.32 68.5866 108.023C68.484 107.725 68.2674 107.48 67.9844 107.342C67.7014 107.204 67.3752 107.185 67.0775 107.287Z" fill="#CCCCCC"/>
<path d="M67.7642 124.321L43.7697 132.592C43.472 132.694 43.1458 132.674 42.8628 132.537C42.5797 132.399 42.3631 132.154 42.2606 131.856C42.158 131.558 42.1779 131.232 42.3159 130.949C42.4538 130.666 42.6986 130.449 42.9962 130.347L66.9907 122.076C67.1391 122.021 67.2969 121.997 67.4548 122.004C67.6128 122.011 67.7677 122.049 67.9106 122.117C68.0534 122.185 68.1813 122.28 68.2868 122.398C68.3922 122.516 68.473 122.654 68.5245 122.803C68.576 122.953 68.5972 123.111 68.5867 123.269C68.5762 123.427 68.5344 123.581 68.4636 123.722C68.3928 123.864 68.2944 123.989 68.1744 124.092C68.0543 124.195 67.9147 124.273 67.7642 124.321Z" fill="#CCCCCC"/>
<path d="M73.7008 126.515L45.076 136.382C44.9276 136.436 44.7698 136.461 44.6119 136.454C44.4539 136.447 44.299 136.408 44.1561 136.34C44.0133 136.273 43.8854 136.177 43.7799 136.059C43.6745 135.941 43.5937 135.804 43.5422 135.654C43.4907 135.505 43.4695 135.346 43.48 135.189C43.4905 135.031 43.5323 134.877 43.6031 134.735C43.6739 134.594 43.7723 134.468 43.8923 134.365C44.0124 134.262 44.1518 134.184 44.3024 134.136L72.9272 124.269C73.0756 124.215 73.2333 124.19 73.3913 124.197C73.5492 124.204 73.7042 124.243 73.8471 124.31C73.9899 124.378 74.1178 124.474 74.2232 124.592C74.3287 124.709 74.4095 124.847 74.461 124.997C74.5125 125.146 74.5336 125.304 74.5232 125.462C74.5127 125.62 74.4708 125.774 74.4 125.915C74.3292 126.057 74.2309 126.183 74.1108 126.286C73.9908 126.389 73.8514 126.466 73.7008 126.515Z" fill="#CCCCCC"/>
<path d="M23.71 106.813C25.9015 106.057 27.066 103.668 26.3109 101.476C25.5558 99.2843 23.1672 98.1199 20.9757 98.8753C18.7841 99.6308 17.6197 102.02 18.3748 104.212C19.1298 106.404 21.5185 107.568 23.71 106.813Z" fill="#6C63FF"/>
<path d="M32.5684 118.317C32.7481 118.838 32.8234 119.389 32.79 119.939C32.7565 120.49 32.6151 121.028 32.3736 121.524C32.1322 122.019 31.7955 122.463 31.3828 122.828C30.9701 123.194 30.4895 123.474 29.9684 123.654C29.9341 123.667 29.8991 123.677 29.8635 123.686C29.0765 123.935 28.2335 123.946 27.4401 123.718C26.6467 123.491 25.9381 123.034 25.4031 122.405C24.868 121.777 24.5302 121.004 24.4319 120.184C24.3336 119.365 24.4792 118.534 24.8505 117.797C25.2218 117.059 25.8023 116.448 26.5193 116.039C27.2364 115.629 28.0581 115.441 28.8817 115.496C29.7053 115.552 30.4941 115.849 31.1496 116.351C31.805 116.853 32.2979 117.537 32.5665 118.318L32.5684 118.317Z" fill="#6C63FF"/>
<path d="M35.4119 140.777C37.6034 140.022 38.7679 137.633 38.0128 135.441C37.2578 133.249 34.8691 132.084 32.6776 132.84C30.486 133.595 29.3216 135.985 30.0767 138.176C30.8317 140.368 33.2204 141.533 35.4119 140.777Z" fill="#6C63FF"/>
<path d="M68.9332 73.1956L60.776 76.0075C60.1805 76.2126 59.528 76.1728 58.962 75.8968C58.3959 75.6208 57.9627 75.1312 57.7575 74.5357L55.6819 68.5106C55.673 68.4842 55.6716 68.4559 55.678 68.4288C55.6845 68.4018 55.6983 68.377 55.7181 68.3575C55.7379 68.3379 55.7628 68.3243 55.7899 68.3182C55.817 68.3121 55.8453 68.3137 55.8716 68.3229L68.9341 72.9154C68.963 72.9256 68.9881 72.9447 69.0058 72.9698C69.0236 72.995 69.033 73.025 69.0329 73.0558C69.0328 73.0865 69.0232 73.1165 69.0053 73.1415C68.9875 73.1666 68.9623 73.1855 68.9332 73.1956Z" fill="#E6E6E6"/>
<path opacity="0.2" d="M91.2447 328.406C91.7125 328.406 92.0917 328.027 92.0917 327.559C92.0917 327.091 91.7125 326.712 91.2447 326.712C90.7769 326.712 90.3977 327.091 90.3977 327.559C90.3977 328.027 90.7769 328.406 91.2447 328.406Z" fill="black"/>
<path d="M429.311 109.243L324.882 101.919C320.054 101.58 315.865 105.221 315.526 110.05L315.007 117.446C314.669 122.275 318.308 126.464 323.137 126.803L427.566 134.127C432.394 134.465 436.583 130.825 436.921 125.996L437.44 118.6C437.779 113.771 434.14 109.581 429.311 109.243Z" fill="#E6E6E6"/>
<path d="M329.759 121.018L330.632 108.575L335.037 108.884C335.78 108.908 336.506 109.113 337.153 109.481C337.664 109.782 338.074 110.229 338.331 110.764C338.573 111.291 338.675 111.872 338.627 112.45C338.612 112.91 338.483 113.358 338.251 113.754C338.051 114.076 337.775 114.344 337.446 114.533C337.124 114.717 336.773 114.848 336.409 114.922L336.401 115.039C336.814 115.099 337.206 115.265 337.536 115.521C337.921 115.812 338.229 116.194 338.431 116.633C338.668 117.159 338.762 117.739 338.703 118.314C338.67 118.905 338.481 119.476 338.155 119.97C337.803 120.475 337.303 120.858 336.724 121.066C335.948 121.332 335.123 121.425 334.307 121.336L329.759 121.018ZM331.442 119.726L334.363 119.931C335.091 120.052 335.838 119.904 336.466 119.515C336.673 119.359 336.844 119.16 336.966 118.932C337.089 118.703 337.16 118.451 337.175 118.192C337.206 117.786 337.124 117.38 336.938 117.018C336.745 116.645 336.455 116.331 336.098 116.11C335.688 115.859 335.221 115.717 334.74 115.696L331.74 115.485L331.442 119.726ZM331.834 114.148L334.571 114.34C335.186 114.401 335.803 114.235 336.305 113.874C336.544 113.702 336.741 113.478 336.88 113.218C337.018 112.958 337.096 112.67 337.106 112.376C337.128 112.122 337.098 111.867 337.018 111.625C336.938 111.383 336.808 111.16 336.639 110.97C336.174 110.521 335.551 110.275 334.905 110.285L332.118 110.09L331.834 114.148Z" fill="#090814"/>
<path d="M366.579 120.26C366.487 120.253 366.396 120.228 366.313 120.186C366.23 120.143 366.157 120.085 366.097 120.013C365.973 119.867 365.912 119.678 365.925 119.487C365.939 119.296 366.026 119.117 366.168 118.989L370.716 114.942C370.785 114.88 370.867 114.832 370.955 114.801C371.044 114.771 371.137 114.759 371.231 114.765C371.324 114.772 371.415 114.797 371.498 114.84C371.582 114.882 371.656 114.941 371.716 115.012C371.839 115.159 371.901 115.348 371.887 115.539C371.874 115.73 371.787 115.909 371.644 116.037L367.094 120.082C367.025 120.145 366.943 120.193 366.855 120.223C366.766 120.253 366.673 120.266 366.58 120.259L366.579 120.26Z" fill="black"/>
<path d="M372.287 119.934C372.186 119.927 372.087 119.897 371.997 119.848C371.908 119.798 371.831 119.73 371.77 119.648C371.657 119.493 371.608 119.3 371.635 119.111C371.661 118.921 371.76 118.749 371.91 118.63L372.291 118.337C373.548 117.203 374.272 114.705 373.32 113.583C372.367 112.46 369.853 112.845 368.58 113.96L368.244 114.305C368.179 114.372 368.101 114.426 368.016 114.462C367.93 114.499 367.838 114.518 367.745 114.519C367.651 114.519 367.559 114.501 367.473 114.465C367.387 114.429 367.309 114.377 367.243 114.31C367.11 114.173 367.035 113.989 367.035 113.797C367.034 113.606 367.109 113.421 367.242 113.283L367.597 112.915C367.609 112.902 367.622 112.89 367.635 112.878C368.584 112.082 369.754 111.596 370.988 111.484C371.605 111.381 372.239 111.431 372.832 111.631C373.426 111.83 373.962 112.173 374.392 112.628C374.774 113.138 375.031 113.731 375.14 114.359C375.25 114.987 375.21 115.632 375.023 116.242C374.747 117.467 374.114 118.583 373.203 119.447C373.19 119.458 373.178 119.469 373.164 119.48L372.763 119.789C372.628 119.894 372.458 119.946 372.287 119.934Z" fill="black"/>
<path d="M365.937 123.556C365.462 123.541 364.995 123.432 364.564 123.233C364.132 123.034 363.745 122.751 363.426 122.399C362.681 121.521 362.308 120.386 362.388 119.237C362.477 117.955 363.882 116.221 364.614 115.579L364.646 115.55L365.043 115.241C365.116 115.184 365.2 115.141 365.29 115.117C365.38 115.092 365.474 115.086 365.566 115.098C365.659 115.111 365.748 115.141 365.828 115.188C365.908 115.236 365.978 115.299 366.034 115.373C366.148 115.527 366.198 115.719 366.173 115.909C366.148 116.099 366.05 116.272 365.9 116.391L365.522 116.687C364.803 117.324 363.842 118.716 363.799 119.335C363.746 120.099 363.994 120.854 364.49 121.438C365.446 122.553 367.963 122.183 369.254 121.082L369.529 120.757C369.589 120.685 369.662 120.625 369.745 120.582C369.828 120.539 369.919 120.513 370.012 120.505C370.106 120.498 370.199 120.509 370.288 120.539C370.377 120.568 370.459 120.615 370.529 120.677C370.671 120.805 370.758 120.983 370.772 121.173C370.786 121.364 370.725 121.552 370.602 121.699L370.295 122.066C370.271 122.093 370.246 122.119 370.218 122.143C369.262 122.938 368.087 123.424 366.848 123.537C366.545 123.567 366.241 123.573 365.938 123.553L365.937 123.556Z" fill="black"/>
<path d="M384.561 106.106L383.317 106.019L381.572 130.904L382.816 130.992L384.561 106.106Z" fill="white"/>
<path d="M348.419 122.327L350.575 113.394L352.056 113.498L349.9 122.431L348.419 122.327ZM351.675 111.984C351.548 111.98 351.424 111.949 351.31 111.891C351.197 111.834 351.098 111.752 351.02 111.652C350.944 111.556 350.891 111.443 350.867 111.323C350.843 111.202 350.847 111.078 350.881 110.96C350.946 110.689 351.114 110.454 351.349 110.305C351.579 110.141 351.859 110.061 352.142 110.08C352.269 110.083 352.395 110.113 352.51 110.17C352.625 110.226 352.726 110.307 352.806 110.406C352.883 110.503 352.936 110.617 352.96 110.738C352.984 110.859 352.979 110.985 352.945 111.104C352.877 111.372 352.71 111.605 352.476 111.753C352.244 111.922 351.961 112.004 351.675 111.984Z" fill="black"/>
<path d="M398.878 115.863C399.124 115.881 399.36 115.971 399.555 116.122C399.75 116.273 399.896 116.478 399.974 116.712C400.052 116.946 400.059 117.198 399.994 117.436C399.929 117.674 399.795 117.888 399.609 118.05C399.423 118.211 399.193 118.314 398.948 118.345C398.703 118.376 398.455 118.334 398.234 118.224C398.014 118.114 397.83 117.941 397.708 117.727C397.586 117.512 397.53 117.267 397.547 117.021C397.57 116.69 397.723 116.383 397.973 116.166C398.223 115.949 398.548 115.84 398.878 115.863Z" fill="#090814"/>
<path d="M394.076 113.026L401.54 113.549C402.2 113.596 402.814 113.902 403.248 114.402C403.682 114.901 403.9 115.552 403.853 116.212L403.33 123.678C403.284 124.337 402.977 124.952 402.478 125.386C401.978 125.82 401.327 126.038 400.667 125.991L393.203 125.468C392.544 125.422 391.929 125.115 391.495 124.616C391.062 124.117 390.844 123.465 390.89 122.806L391.414 115.34C391.46 114.68 391.766 114.065 392.266 113.631C392.765 113.197 393.416 112.98 394.076 113.026ZM400.755 124.748C400.918 124.759 401.082 124.739 401.237 124.687C401.393 124.635 401.536 124.553 401.66 124.445C401.784 124.338 401.885 124.207 401.958 124.06C402.031 123.914 402.075 123.754 402.086 123.591L402.61 116.125C402.621 115.962 402.6 115.797 402.548 115.642C402.497 115.487 402.415 115.343 402.307 115.219C402.2 115.096 402.069 114.995 401.922 114.921C401.776 114.848 401.616 114.805 401.453 114.793L393.989 114.27C393.659 114.247 393.333 114.356 393.084 114.573C392.834 114.79 392.681 115.097 392.658 115.427L392.134 122.892C392.123 123.056 392.144 123.22 392.196 123.375C392.247 123.53 392.329 123.674 392.437 123.798C392.544 123.921 392.675 124.023 392.822 124.096C392.968 124.169 393.128 124.212 393.291 124.224L400.755 124.748Z" fill="black"/>
<path d="M399.642 122.795C399.478 122.783 399.326 122.706 399.218 122.582L396.327 119.257C396.273 119.178 396.201 119.113 396.118 119.065C396.035 119.018 395.942 118.989 395.846 118.983C395.751 118.976 395.655 118.991 395.566 119.026C395.477 119.062 395.397 119.117 395.332 119.187L392.008 122.076C391.884 122.184 391.721 122.239 391.556 122.227C391.391 122.215 391.237 122.139 391.129 122.014C391.02 121.889 390.966 121.726 390.977 121.561C390.989 121.396 391.066 121.243 391.19 121.134L394.519 118.242L394.528 118.235C394.716 118.061 394.938 117.927 395.18 117.843C395.421 117.758 395.678 117.723 395.934 117.741C396.189 117.759 396.438 117.829 396.666 117.947C396.893 118.065 397.094 118.228 397.257 118.426L397.265 118.435L400.157 121.764C400.238 121.857 400.289 121.972 400.305 122.094C400.321 122.217 400.299 122.341 400.244 122.452C400.189 122.562 400.102 122.654 399.995 122.715C399.888 122.776 399.765 122.804 399.642 122.795Z" fill="black"/>
<path d="M402.752 123.012C402.588 123 402.436 122.924 402.328 122.8L400.594 120.806C400.54 120.728 400.468 120.662 400.385 120.614C400.302 120.567 400.209 120.539 400.113 120.532C400.018 120.525 399.922 120.54 399.833 120.576C399.744 120.611 399.664 120.666 399.599 120.737L398.938 121.311C398.876 121.365 398.805 121.406 398.727 121.432C398.649 121.457 398.567 121.468 398.486 121.462C398.321 121.451 398.167 121.374 398.059 121.249C397.95 121.124 397.896 120.961 397.907 120.796C397.919 120.631 397.995 120.478 398.12 120.369L398.786 119.791L398.795 119.784C398.983 119.61 399.205 119.477 399.447 119.392C399.689 119.307 399.945 119.273 400.201 119.291C400.456 119.308 400.705 119.378 400.933 119.496C401.16 119.614 401.361 119.777 401.524 119.975L401.532 119.984L403.267 121.981C403.348 122.075 403.4 122.19 403.415 122.312C403.431 122.435 403.409 122.559 403.354 122.669C403.299 122.78 403.213 122.871 403.105 122.932C402.998 122.993 402.875 123.021 402.752 123.012Z" fill="black"/>
<path d="M422.516 127.524C422.054 127.483 421.627 127.26 421.33 126.904C421.032 126.548 420.888 126.089 420.929 125.627L421.303 120.295C421.498 117.513 423.039 115.778 425.744 115.274C425.857 115.255 425.972 115.258 426.084 115.284C426.195 115.309 426.3 115.357 426.393 115.424C426.485 115.491 426.563 115.576 426.623 115.674C426.682 115.772 426.721 115.88 426.737 115.993C426.779 116.223 426.729 116.459 426.598 116.653C426.468 116.846 426.267 116.98 426.039 117.027C424.099 117.392 423.151 118.457 423.014 120.415L422.952 121.303L425.52 121.484C425.959 121.523 426.367 121.726 426.662 122.053C426.957 122.381 427.117 122.807 427.111 123.248L427.106 123.382L426.919 126.048C426.896 126.511 426.689 126.946 426.345 127.257C426.001 127.567 425.547 127.729 425.084 127.705L422.516 127.524Z" fill="black"/>
<path d="M414.818 126.984C414.357 126.943 413.93 126.72 413.633 126.364C413.335 126.008 413.191 125.549 413.232 125.087L413.606 119.755C413.801 116.973 415.341 115.239 418.047 114.735C418.16 114.715 418.275 114.718 418.386 114.744C418.498 114.77 418.603 114.818 418.695 114.885C418.788 114.952 418.866 115.037 418.925 115.135C418.984 115.232 419.023 115.341 419.04 115.454C419.081 115.683 419.032 115.92 418.901 116.113C418.771 116.306 418.57 116.441 418.342 116.488C416.402 116.852 415.454 117.917 415.317 119.875L415.255 120.763L417.823 120.943C418.262 120.982 418.67 121.186 418.965 121.513C419.26 121.84 419.42 122.267 419.414 122.707L419.409 122.841L419.222 125.507C419.198 125.971 418.992 126.405 418.648 126.716C418.304 127.027 417.85 127.188 417.387 127.165L414.818 126.984Z" fill="black"/>
<path d="M325.256 335.057H100.434C96.3501 335.061 92.4346 336.686 89.5466 339.575C86.6587 342.463 85.0341 346.38 85.0293 350.465C85.0273 352.429 85.4047 354.376 86.1407 356.197C87.2844 359.054 89.257 361.503 91.8045 363.228C94.352 364.954 97.3577 365.877 100.434 365.879H325.256C327.945 365.878 330.587 365.173 332.92 363.834C335.252 362.495 337.193 360.569 338.551 358.247C338.937 357.59 339.273 356.905 339.555 356.198C340.291 354.376 340.668 352.43 340.666 350.466C340.66 346.38 339.035 342.463 336.146 339.575C333.257 336.686 329.341 335.062 325.256 335.057L325.256 335.057Z" fill="#D6D6E3"/>
<path d="M230.135 194.678H197.387V233.181H230.135V194.678Z" fill="#ED9DA0"/>
<path d="M208.852 169.826H212.275C213.94 169.827 215.536 170.488 216.713 171.666C217.889 172.843 218.55 174.44 218.55 176.104H202.575C202.575 174.439 203.237 172.843 204.414 171.665C205.591 170.488 207.187 169.826 208.852 169.826Z" fill="#CCCCCC"/>
<path d="M213.856 134.704C228.933 134.704 246.955 157.6 246.955 157.6C246.955 157.6 249.217 165.621 249.217 170.074C249.217 177.07 247.143 183.908 243.257 189.725C239.372 195.541 233.849 200.074 227.387 202.751C220.926 205.428 213.816 206.129 206.957 204.764C200.097 203.399 193.796 200.03 188.851 195.084C183.906 190.137 180.538 183.835 179.174 176.974C177.809 170.113 178.509 163.001 181.186 156.538C183.862 150.076 188.395 144.552 194.21 140.665C200.025 136.779 206.862 134.704 213.856 134.704Z" fill="#ED9DA0"/>
<path d="M117.693 363.369H313.288C311.979 348.445 311.126 291.399 311.126 287.645C311.126 271.086 297.58 253.015 297.58 253.015L292.731 250.334L252.236 237.699L241.756 224.082C240.659 222.652 239.245 221.496 237.625 220.705C236.006 219.914 234.225 219.51 232.423 219.523L199.319 219.773C196.405 219.795 193.604 220.905 191.466 222.885L170.966 241.904L140.902 256.263L140.851 256.212L140.539 256.446L136.077 259.661L133.21 261.735C133.21 261.735 125.676 270.771 119.658 297.871C118.752 301.948 118.117 354.712 117.693 363.369Z" fill="#F2F2F2"/>
<path d="M358.56 356.197C358.089 356.627 357.613 357.052 357.136 357.477C355.334 359.081 353.505 360.657 351.651 362.205C348.85 364.542 345.991 366.807 343.073 369H79.7645C74.4045 364.974 69.2397 360.705 64.2703 356.194L358.56 356.197Z" fill="#D6D6E3"/>
<path d="M262.043 359.271H165.249L167.297 349.539H259.993L262.043 359.271Z" fill="#090814"/>
<path d="M349.613 317.269H324.428C323.859 317.267 323.298 317.39 322.782 317.629C322.266 317.868 321.808 318.218 321.442 318.652C321.091 318.585 320.735 318.55 320.377 318.55C318.793 318.55 317.273 319.179 316.153 320.3C315.033 321.421 314.403 322.94 314.403 324.525C314.403 326.11 315.033 327.63 316.153 328.75C317.273 329.871 318.793 330.5 320.377 330.5C321.278 330.501 322.168 330.295 322.977 329.898L323.399 335.06L325.069 355.468C325.148 355.723 325.254 355.969 325.386 356.201C325.723 356.821 326.222 357.339 326.829 357.699C327.436 358.06 328.129 358.25 328.835 358.25H345.21C345.916 358.249 346.608 358.058 347.215 357.697C347.822 357.337 348.32 356.82 348.659 356.201C348.787 355.967 348.891 355.722 348.971 355.468L353.375 322.366C353.557 321.777 353.597 321.153 353.493 320.546C353.39 319.938 353.145 319.363 352.779 318.867C352.413 318.372 351.935 317.969 351.385 317.691C350.835 317.414 350.227 317.269 349.611 317.269H349.613ZM320.377 328.795C319.244 328.795 318.158 328.345 317.357 327.544C316.556 326.743 316.106 325.656 316.106 324.523C316.106 323.391 316.556 322.304 317.357 321.503C318.158 320.702 319.244 320.252 320.377 320.252C320.453 320.252 320.525 320.273 320.602 320.278C320.434 320.965 320.455 321.686 320.665 322.363L322.467 328.222C321.832 328.591 321.111 328.787 320.377 328.791L320.377 328.795Z" fill="#305DBF"/>
<path d="M294.412 205.244H130.22C128.809 205.245 127.456 205.806 126.458 206.804C125.461 207.802 124.9 209.155 124.898 210.566V321.389C124.9 322.8 125.461 324.153 126.458 325.151C127.456 326.149 128.809 326.71 130.22 326.712H294.412C295.823 326.71 297.176 326.149 298.174 325.151C299.172 324.153 299.733 322.8 299.734 321.389V210.566C299.733 209.155 299.172 207.802 298.174 206.804C297.176 205.806 295.823 205.245 294.412 205.244Z" fill="#3F3D56"/>
<path d="M230.962 295.188H193.663C193.402 295.189 193.143 295.241 192.902 295.341C192.66 295.442 192.441 295.589 192.256 295.774C192.072 295.959 191.926 296.179 191.826 296.421C191.727 296.663 191.676 296.922 191.676 297.183V356.118H232.954V297.181C232.955 296.918 232.904 296.659 232.804 296.417C232.703 296.174 232.557 295.954 232.371 295.769C232.186 295.584 231.966 295.437 231.724 295.337C231.482 295.236 231.222 295.185 230.96 295.186L230.962 295.188ZM212.438 328.674C211.271 328.669 210.154 328.203 209.329 327.378C208.504 326.553 208.039 325.435 208.033 324.268V317.473C208.027 316.891 208.136 316.313 208.354 315.772C208.573 315.232 208.896 314.741 209.306 314.326C209.716 313.912 210.203 313.583 210.741 313.359C211.278 313.134 211.855 313.019 212.438 313.019C213.02 313.019 213.597 313.134 214.135 313.359C214.672 313.583 215.16 313.912 215.57 314.326C215.979 314.741 216.303 315.232 216.521 315.772C216.739 316.313 216.849 316.891 216.842 317.473V324.268C216.837 325.435 216.371 326.553 215.546 327.378C214.721 328.203 213.605 328.669 212.438 328.674Z" fill="#090814"/>
<path d="M191.548 354.23V359.916C191.549 360.211 191.666 360.493 191.874 360.701C192.083 360.91 192.365 361.027 192.66 361.028H231.973C232.268 361.026 232.55 360.909 232.758 360.7C232.966 360.492 233.083 360.21 233.085 359.916V354.23H191.548Z" fill="#3F3D56"/>
<path d="M289.335 320.619C290.725 320.619 291.852 319.492 291.852 318.101C291.852 316.71 290.725 315.583 289.335 315.583C287.945 315.583 286.818 316.71 286.818 318.101C286.818 319.492 287.945 320.619 289.335 320.619Z" fill="#2F2E41"/>
<path d="M153.415 314.449C153.182 314.449 152.958 314.542 152.792 314.707C152.627 314.872 152.534 315.096 152.534 315.33V319.863C152.534 320.097 152.627 320.321 152.792 320.486C152.958 320.652 153.182 320.744 153.415 320.744C153.649 320.744 153.873 320.652 154.038 320.486C154.203 320.321 154.296 320.097 154.296 319.863V315.329C154.296 315.095 154.203 314.871 154.038 314.706C153.873 314.541 153.649 314.448 153.415 314.448V314.449Z" fill="#2F2E41"/>
<path d="M158.198 314.449C158.082 314.449 157.968 314.472 157.861 314.516C157.754 314.56 157.657 314.625 157.575 314.707C157.493 314.789 157.428 314.886 157.384 314.993C157.34 315.1 157.317 315.214 157.317 315.33V319.863C157.317 320.097 157.41 320.321 157.575 320.486C157.74 320.652 157.964 320.744 158.198 320.744C158.431 320.744 158.656 320.652 158.821 320.486C158.986 320.321 159.079 320.097 159.079 319.863V315.329C159.079 315.213 159.056 315.099 159.012 314.992C158.968 314.885 158.903 314.788 158.821 314.706C158.739 314.624 158.642 314.559 158.535 314.515C158.429 314.471 158.314 314.448 158.198 314.448L158.198 314.449Z" fill="#2F2E41"/>
<path d="M162.986 314.449C162.752 314.449 162.528 314.542 162.363 314.707C162.198 314.872 162.105 315.096 162.105 315.33V319.863C162.105 320.097 162.198 320.321 162.363 320.486C162.528 320.652 162.752 320.744 162.986 320.744C163.219 320.744 163.443 320.652 163.609 320.486C163.774 320.321 163.867 320.097 163.867 319.863V315.329C163.867 315.213 163.844 315.098 163.799 314.992C163.755 314.885 163.69 314.787 163.608 314.706C163.527 314.624 163.429 314.559 163.322 314.515C163.215 314.47 163.101 314.448 162.985 314.448L162.986 314.449Z" fill="#2F2E41"/>
<path d="M167.765 314.449C167.531 314.449 167.307 314.542 167.142 314.707C166.977 314.872 166.884 315.096 166.884 315.33V319.863C166.884 320.097 166.977 320.321 167.142 320.486C167.307 320.652 167.531 320.744 167.765 320.744C167.998 320.744 168.222 320.652 168.388 320.486C168.553 320.321 168.646 320.097 168.646 319.863V315.329C168.646 315.095 168.553 314.871 168.388 314.706C168.222 314.541 167.998 314.448 167.765 314.448V314.449Z" fill="#2F2E41"/>
<path d="M171.581 330.073C178.934 330.073 187.721 341.423 187.721 348.778C187.721 356.134 178.934 356.709 171.581 356.709C168.049 356.709 164.663 355.306 162.166 352.808C159.668 350.311 158.266 346.923 158.266 343.391C158.266 339.859 159.668 336.471 162.166 333.973C164.663 331.476 168.049 330.073 171.581 330.073Z" fill="#ED9DA0"/>
<path d="M264.604 332.634C268.136 332.634 271.523 334.037 274.02 336.535C276.517 339.032 277.92 342.42 277.92 345.952C277.92 349.484 276.517 352.872 274.02 355.37C271.523 357.867 268.136 359.27 264.604 359.27C257.249 359.27 246.273 353.307 246.273 345.952C246.273 338.597 257.249 332.634 264.604 332.634Z" fill="#ED9DA0"/>
<path d="M236.721 134.546L237.433 130.712L227.848 128.933C227.848 128.933 214.29 116.498 198.736 125.512C183.183 134.526 176.363 139.209 176.363 139.209L169.191 145.811L174.586 148.796L167.767 153.48L173.516 154.548L168.614 159.586L176.691 175.96C176.691 175.96 178.199 161.364 189.701 163.499C201.203 165.634 217.471 152.79 217.471 152.79L242.313 179.221C242.313 179.221 242.521 167.414 249.235 168.633C249.234 168.634 257.452 140.378 236.721 134.546Z" fill="#090814"/>
<path d="M286.832 76.6221H168.307C167.93 76.621 167.569 76.4706 167.302 76.2038C167.035 75.9371 166.885 75.5756 166.884 75.1983V1.97146C166.885 1.5942 167.035 1.23271 167.302 0.965944C167.569 0.699174 167.93 0.548793 168.307 0.547638H286.832C287.209 0.548793 287.57 0.699174 287.837 0.965944C288.104 1.23271 288.254 1.5942 288.255 1.97146V75.1956C288.255 75.5733 288.105 75.9355 287.838 76.2029C287.571 76.4702 287.209 76.621 286.832 76.6221Z" fill="white"/>
<path d="M286.832 76.6221H168.307C167.93 76.621 167.569 76.4706 167.302 76.2038C167.035 75.9371 166.885 75.5756 166.884 75.1983V1.97146C166.885 1.5942 167.035 1.23271 167.302 0.965944C167.569 0.699174 167.93 0.548793 168.307 0.547638H286.832C287.209 0.548793 287.57 0.699174 287.837 0.965944C288.104 1.23271 288.254 1.5942 288.255 1.97146V75.1956C288.255 75.5733 288.105 75.9355 287.838 76.2029C287.571 76.4702 287.209 76.621 286.832 76.6221Z" stroke="#D7D7D7" stroke-width="2" stroke-miterlimit="10"/>
<path d="M245.177 51.9971H171.656C171.306 52.021 170.96 51.9063 170.694 51.6778C170.428 51.4492 170.262 51.1251 170.232 50.7753V10.8709C170.262 10.5212 170.428 10.197 170.694 9.96847C170.96 9.73991 171.306 9.62522 171.656 9.64918H245.177C245.528 9.62522 245.873 9.73991 246.139 9.96847C246.406 10.197 246.571 10.5212 246.601 10.8709V50.7759C246.571 51.1256 246.406 51.4497 246.139 51.6783C245.873 51.9069 245.528 52.0216 245.177 51.9976V51.9971Z" fill="#305DBF"/>
<path d="M176.232 6.8875H170.845C170.468 6.88635 170.106 6.73597 169.84 6.4692C169.573 6.20243 169.423 5.84094 169.421 5.46368V4.82898C169.423 4.45171 169.573 4.09023 169.84 3.82346C170.106 3.55669 170.468 3.40631 170.845 3.40515H176.232C176.609 3.40631 176.971 3.55669 177.238 3.82346C177.504 4.09023 177.655 4.45171 177.656 4.82898V5.46313C177.655 5.8404 177.504 6.20188 177.238 6.46865C176.971 6.73542 176.609 6.88635 176.232 6.8875Z" fill="#E6E6E6"/>
<path d="M271.621 6.8875H268.453C268.076 6.88635 267.715 6.73597 267.448 6.4692C267.181 6.20243 267.031 5.84094 267.03 5.46368V4.82898C267.031 4.45171 267.181 4.09023 267.448 3.82346C267.715 3.55669 268.076 3.40631 268.453 3.40515H271.622C271.999 3.40631 272.361 3.55669 272.628 3.82346C272.894 4.09023 273.045 4.45171 273.046 4.82898V5.46313C273.045 5.8404 272.894 6.20188 272.628 6.46865C272.361 6.73542 271.999 6.8858 271.622 6.88696L271.621 6.8875Z" fill="#E6E6E6"/>
<path d="M244.684 73.769H210.775C210.398 73.768 210.037 73.6177 209.77 73.3509C209.503 73.0841 209.353 72.7225 209.352 72.3452V61.2487C209.353 60.8713 209.503 60.5098 209.77 60.243C210.037 59.9762 210.398 59.8258 210.775 59.8248H244.684C245.061 59.8258 245.423 59.9762 245.69 60.243C245.956 60.5098 246.107 60.8713 246.108 61.2487V72.343C246.107 72.7207 245.957 73.0829 245.69 73.3501C245.423 73.6174 245.061 73.768 244.684 73.769Z" fill="#E6E6E6"/>
<path d="M204.618 73.6918H170.709C170.331 73.6907 169.97 73.5403 169.703 73.2735C169.437 73.0067 169.286 72.6452 169.285 72.268V61.1698C169.286 60.7925 169.437 60.431 169.703 60.1643C169.97 59.8975 170.331 59.7471 170.709 59.746H204.618C204.995 59.7471 205.356 59.8975 205.623 60.1643C205.89 60.431 206.04 60.7925 206.041 61.1698V72.2641C206.04 72.6414 205.89 73.0029 205.623 73.2697C205.356 73.5364 204.995 73.6868 204.618 73.688V73.6918Z" fill="#E6E6E6"/>
<path d="M284.297 59.8199C284.674 59.821 285.035 59.9714 285.302 60.2382C285.569 60.505 285.719 60.8664 285.72 61.2437V72.3381C285.719 72.7153 285.569 73.0768 285.302 73.3436C285.035 73.6104 284.674 73.7607 284.297 73.7619H250.389C250.011 73.7609 249.65 73.6105 249.383 73.3437C249.116 73.0769 248.966 72.7154 248.965 72.3381V61.2486C248.966 60.8713 249.116 60.5098 249.383 60.243C249.65 59.9762 250.011 59.8258 250.389 59.8248" fill="#E6E6E6"/>
<path d="M250.387 25.0621C250.177 25.0624 249.976 25.146 249.828 25.2945C249.679 25.4431 249.596 25.6444 249.595 25.8545V26.4887C249.596 26.6987 249.679 26.9001 249.828 27.0487C249.976 27.1972 250.177 27.2808 250.387 27.2811H268.768C268.978 27.2808 269.179 27.1972 269.328 27.0487C269.477 26.9001 269.56 26.6987 269.56 26.4887V25.8545C269.56 25.6444 269.477 25.4431 269.328 25.2945C269.179 25.146 268.978 25.0624 268.768 25.0621H250.387Z" fill="#E6E6E6"/>
<path d="M250.387 30.1337C250.177 30.1337 249.976 30.2172 249.827 30.3658C249.679 30.5144 249.595 30.7159 249.595 30.9261C249.595 31.1362 249.679 31.3378 249.827 31.4864C249.976 31.635 250.177 31.7185 250.387 31.7185H278.592C278.802 31.7185 279.004 31.635 279.152 31.4864C279.301 31.3378 279.384 31.1362 279.384 30.9261C279.384 30.7159 279.301 30.5144 279.152 30.3658C279.004 30.2172 278.802 30.1337 278.592 30.1337H250.387Z" fill="#E6E6E6"/>
<path d="M250.387 34.5716C250.177 34.5716 249.976 34.6551 249.827 34.8037C249.679 34.9523 249.595 35.1539 249.595 35.364C249.595 35.5742 249.679 35.7758 249.827 35.9244C249.976 36.073 250.177 36.1565 250.387 36.1565H278.592C278.802 36.1565 279.004 36.073 279.152 35.9244C279.301 35.7758 279.384 35.5742 279.384 35.364C279.384 35.1539 279.301 34.9523 279.152 34.8037C279.004 34.6551 278.802 34.5716 278.592 34.5716H250.387Z" fill="#E6E6E6"/>
<path d="M277.958 6.8875H274.789C274.412 6.88635 274.05 6.73597 273.784 6.4692C273.517 6.20243 273.367 5.84094 273.365 5.46368V4.82898C273.367 4.45171 273.517 4.09023 273.784 3.82346C274.05 3.55669 274.412 3.40631 274.789 3.40515H277.958C278.335 3.40616 278.697 3.5565 278.963 3.8233C279.23 4.0901 279.38 4.45167 279.381 4.82898V5.46313C279.381 5.84053 279.23 6.20224 278.964 6.46916C278.697 6.73608 278.335 6.88649 277.958 6.8875Z" fill="#E6E6E6"/>
<path d="M284.297 6.8875H281.128C280.751 6.88635 280.389 6.73597 280.123 6.4692C279.856 6.20243 279.706 5.84094 279.704 5.46368V4.82898C279.706 4.45171 279.856 4.09023 280.123 3.82346C280.389 3.55669 280.751 3.40631 281.128 3.40515H284.297C284.674 3.40631 285.035 3.55669 285.302 3.82346C285.569 4.09023 285.719 4.45171 285.72 4.82898V5.46313C285.719 5.8404 285.569 6.20188 285.302 6.46865C285.035 6.73542 284.674 6.88635 284.297 6.8875Z" fill="#E6E6E6"/>
</g>
<defs>
<clipPath id="clip0_19_330">
<rect width="438" height="369" fill="white"/>
</clipPath>
</defs>
</svg>
